<?xml version="1.0" encoding="utf-8"?>
<svg xmlns="http://www.w3.org/2000/svg" height="48" width="48" viewBox="0 0 48 48">
  <g>
    <path id="path1" transform="rotate(0,24,24) translate(11.4023102570886,11) scale(0.804629722433638,0.804629722433638)  " fill="#FFFFFF" d="M4.6250053,19.688C5.1770054,19.688 5.6250053,20.136 5.6250053,20.688 5.6250053,21.24 5.1770054,21.688 4.6250053,21.688 4.0730053,21.688 3.6250053,21.24 3.6250056,20.688 3.6250053,20.136 4.0730053,19.688 4.6250053,19.688z M21,17L23,17 23,22 28,22 28,24 23,24 23,29 21,29 21,24 16,24 16,22 21,22z M22,15.688C17.967995,15.688 14.687991,18.968 14.687991,23 14.687991,27.033001 17.967995,30.313 22,30.313 26.032005,30.313 29.31201,27.033001 29.31201,23 29.31201,18.968 26.032005,15.688 22,15.688z M22,13.688C27.135006,13.688 31.313011,17.865999 31.313011,23 31.313011,28.135 27.135006,32.313 22,32.313 16.864994,32.313 12.686988,28.135 12.686988,23 12.686988,17.865999 16.864994,13.688 22,13.688z M4.6250053,11.688C5.1770054,11.688 5.6250053,12.136 5.6250053,12.688 5.6250053,13.24 5.1770054,13.688 4.6250053,13.688 4.0730053,13.688 3.6250053,13.24 3.6250056,12.688 3.6250053,12.136 4.0730053,11.688 4.6250053,11.688z M4.6250053,3.6559892C5.1770054,3.6559889 5.6250053,4.1039891 5.6250053,4.6559892 5.6250053,5.2079887 5.1770054,5.6559892 4.6250053,5.6559892 4.0730053,5.6559892 3.6250053,5.2079887 3.6250056,4.6559892 3.6250053,4.1039891 4.0730053,3.6559889 4.6250053,3.6559892z M2.0000001,2L2.0000001,8 23,8 23,2z M0.59399435,0L23.593994,0C24.145996,0,25,0.13500977,25,0.68798822L25,12.520996C24.354004,12.360992,23.687012,12.26001,23,12.222992L23,10 2.0000001,10 2.0000001,16 14.207009,16C13.68901,16.612,13.240009,17.282,12.867009,18L2.0000001,18 2.0000001,24 11.709992,24C11.777008,24.687988,11.912994,25.355988,12.104004,26L0.59399435,26C0.041992273,26,8.5917158E-08,25.23999,0,24.687012L0,0.68798822C8.5917158E-08,0.13500977,0.041992273,0,0.59399435,0z" />
  </g>
</svg>