<?xml version="1.0" encoding="utf-8"?>
<svg xmlns="http://www.w3.org/2000/svg" height="48" width="48" viewBox="0 0 48 48">
  <g>
    <path id="path1" transform="rotate(0,24,24) translate(11,11.3302811384201) scale(0.8125,0.8125)  " fill="#FFFFFF" d="M3.4539948,19.485985L3.4539948,25.896994C4.9570007,27.396994 10.236008,28.700979 16.044998,28.700979 21.852997,28.700979 27.042007,27.396994 28.544998,25.896994L28.544998,19.498985C25.449997,20.915977 20.751007,21.581993 16.044998,21.581993 11.322998,21.581993 6.5780029,20.909996 3.4539948,19.485985z M3.4539948,10.373989L3.4539948,16.290003C4.9570007,17.791986 10.236008,19.096002 16.044998,19.096002 21.852997,19.096002 27.042007,17.791986 28.544998,16.290003L28.544998,10.373989C25.462006,11.831997 20.725998,12.518978 15.998993,12.518978 11.274002,12.518978 6.5379944,11.831997 3.4539948,10.373989z M15.998993,2.6900016C9.0709991,2.6900016 3.4539948,4.2869857 3.4539948,6.2590006 3.4539948,8.2309846 9.0709991,9.8299836 15.998993,9.8299836 22.929001,9.8299836 28.544998,8.2309846 28.544998,6.2590006 28.544998,4.2869857 22.929001,2.6900016 15.998993,2.6900016z M15.998993,0C23.962997,1.3273893E-07,32,1.936004,32,6.2590006L32,25.896994C30.871002,29.538992 23.462997,31.187 16.044998,31.187 8.6260071,31.187 1.128006,29.538992 0,25.896994L0,6.6849955 0.050994873,6.6849955C0.031997681,6.5440043 0,6.4069804 0,6.2590006 0,1.936004 8.0350037,1.3273893E-07 15.998993,0z" />
  </g>
</svg>