<?xml version="1.0" encoding="utf-8"?>
<svg xmlns="http://www.w3.org/2000/svg" height="48" width="48" viewBox="0 0 48 48">
  <g>
    <path id="path1" transform="rotate(0,24,24) translate(11,11.1178306911861) scale(0.812473268196342,0.812473268196342)  " fill="#FFFFFF" d="M24.569082,2.8700118L32.001053,2.8700118 32.001053,10.302009C32.001053,10.850008 31.558054,11.293008 31.010056,11.293008 30.462059,11.293008 30.01906,10.850008 30.01906,10.302009L30.01906,6.4059219 24.446043,13.874015 15.371053,13.874015 7.2450614,25.123013 5.6390634,23.962013 14.359054,11.892015 23.452044,11.892015 28.706057,4.8520107 24.569082,4.8520107C24.021086,4.8520107 23.578087,4.4090109 23.578087,3.8610113 23.578087,3.3130116 24.021086,2.8700118 24.569082,2.8700118z M0,0L1.9819945,0 1.9819945,29.728989 31.710999,29.728989 31.710999,31.710999 0,31.710999z" />
  </g>
</svg>