<?xml version="1.0" encoding="utf-8"?>
<svg xmlns="http://www.w3.org/2000/svg" height="48" width="48" viewBox="0 0 48 48">
  <g>
    <path id="path1" transform="rotate(0,24,24) translate(11.0020027957683,11) scale(0.804629722433638,0.804629722433638)  " fill="#FFFFFF" d="M4.6250057,19.688C5.1770057,19.688 5.6250057,20.136 5.6250057,20.688 5.6250057,21.24 5.1770057,21.688 4.6250057,21.688 4.0730056,21.688 3.6250057,21.24 3.6250054,20.688 3.6250057,20.136 4.0730056,19.688 4.6250057,19.688z M19.46599,18.050991L23.0005,21.585512 26.53501,18.050991 27.949009,19.464994 24.4145,22.999516 27.949982,26.535009 26.535983,27.949011 23.0005,24.413517 19.465018,27.949011 18.05102,26.535009 21.586502,22.999516 18.051993,19.464994z M23,15.688C21.047049,15.688 19.210093,16.448999 17.829127,17.83 14.978197,20.681 14.978197,25.32 17.829127,28.171 19.210093,29.552 21.047049,30.313 23,30.313 24.952952,30.313 26.789908,29.552 28.170874,28.171 31.021805,25.32 31.021805,20.681 28.170874,17.83 26.789908,16.448999 24.952952,15.688 23,15.688z M23,13.688C25.486939,13.688 27.825882,14.657 29.584839,16.416 33.215752,20.046 33.215752,25.955 29.584839,29.584999 27.825882,31.344 25.486939,32.313 23,32.313 20.513062,32.313 18.174118,31.344 16.415162,29.584999 12.78425,25.955 12.78425,20.046 16.415162,16.416 18.174118,14.657 20.513062,13.688 23,13.688z M4.6250057,11.688C5.1770057,11.688 5.6250057,12.136 5.6250057,12.688 5.6250057,13.24 5.1770057,13.688 4.6250057,13.688 4.0730056,13.688 3.6250057,13.24 3.6250054,12.688 3.6250057,12.136 4.0730056,11.688 4.6250057,11.688z M4.6250057,3.6559892C5.1770057,3.6559889 5.6250057,4.1039891 5.6250057,4.6559892 5.6250057,5.2079887 5.1770057,5.6559892 4.6250057,5.6559892 4.0730056,5.6559892 3.6250057,5.2079887 3.6250054,4.6559892 3.6250057,4.1039891 4.0730056,3.6559889 4.6250057,3.6559892z M2.0000001,2L2.0000001,8 23,8 23,2z M0.59405548,0L23.594056,0C24.146058,0,25,0.13500977,25,0.68798822L25,12.520996C24.354004,12.360992,23.687012,12.26001,23,12.222992L23,10 2.0000001,10 2.0000001,16 14.206979,16C13.68898,16.612,13.239979,17.282,12.866979,18L2.0000001,18 2.0000001,24 11.710022,24C11.777039,24.687988,11.913025,25.355988,12.104004,26L0.59405548,26C0.042053641,26,4.1870248E-07,25.23999,0,24.687012L0,0.68798822C4.1870248E-07,0.13500977,0.042053641,0,0.59405548,0z" />
  </g>
</svg>