<?xml version="1.0" encoding="utf-8"?>
<svg xmlns="http://www.w3.org/2000/svg" height="48" width="48" viewBox="0 0 48 48">
  <g>
    <path id="path1" transform="rotate(0,24,24) translate(11,13.5125520793879) scale(0.806726763124006,0.806726763124006)  " fill="#FFFFFF" d="M19.587998,22.364976L21.886004,24.659981 18.438994,25.807983z M4.6250015,19.688C5.1770018,19.688 5.6250017,20.136 5.6250017,20.688 5.6250017,21.24 5.1770018,21.688 4.6250015,21.688 4.0730017,21.688 3.6250017,21.24 3.625002,20.688 3.6250017,20.136 4.0730017,19.688 4.6250015,19.688z M26.482996,15.478L28.780995,17.774001 23.034998,23.512003 20.737,21.217002z M29.930003,12.035022L32.229002,14.330008 29.930003,16.624995 27.632002,14.330008z M4.6250015,11.688C5.1770018,11.688 5.6250017,12.136 5.6250017,12.688 5.6250017,13.24 5.1770018,13.688 4.6250015,13.688 4.0730017,13.688 3.6250017,13.24 3.625002,12.688 3.6250017,12.136 4.0730017,11.688 4.6250015,11.688z M2.0000003,10L2.0000003,16 23,16 23,10z M4.6250015,3.6559896C5.1770018,3.6559892 5.6250017,4.1039889 5.6250017,4.6559892 5.6250017,5.207989 5.1770018,5.6559889 4.6250015,5.6559887 4.0730017,5.6559889 3.6250017,5.207989 3.625002,4.6559892 3.6250017,4.1039889 4.0730017,3.6559892 4.6250015,3.6559896z M2.0000003,2L2.0000003,8.0000003 23,8.0000003 23,2z M0.59400004,0L23.594,0C24.368,0,25,0.6329999,25,1.4070001L25,14.687 23.685686,16 23.066033,16.619035 23,16.685 21.682995,18 2.0000003,18 2.0000003,24 15.676,24 13.673,26 1.3129999,26C0.59100002,26,0,25.409,0,24.687L0,0.59299994C0,0.26599979,0.26600003,0,0.59400004,0z" />
  </g>
</svg>