<?xml version="1.0" encoding="utf-8"?>
<svg xmlns="http://www.w3.org/2000/svg" height="48" width="48" viewBox="0 0 48 48">
  <g>
    <path id="path1" transform="rotate(0,24,24) translate(11,11.0000015503067) scale(0.812525474300136,0.812525474300136)  " fill="#FFFFFF" d="M16.000001,20.310002C14.622,20.310002,13.5,21.431003,13.5,22.810002L13.5,29.998992 18.500001,29.998992 18.500001,22.810002C18.500001,21.431003,17.377999,20.310002,16.000001,20.310002z M24.043998,7.3999764L24.897998,7.3999764 24.897998,8.1159774C25.481998,8.1399776,25.873998,8.253977,26.161998,8.3829776L25.908998,9.3029787C25.682998,9.213978 25.281999,9.0259782 24.653999,9.0259782 24.087999,9.0259782 23.904998,9.2549783 23.904998,9.4819786 23.904998,9.7509786 24.209998,9.9219791 24.950999,10.180979 25.986999,10.52298 26.405997,10.96998 26.405997,11.701981 26.405997,12.426981 25.856998,13.044982 24.854999,13.206983L24.854999,14.036983 24.000999,14.036983 24.000999,13.263982C23.416999,13.238982,22.850999,13.092982,22.52,12.913982L22.780999,11.962981C23.146999,12.148981 23.660998,12.319982 24.227998,12.319982 24.723998,12.319982 25.063998,12.140981 25.063998,11.815981 25.063998,11.506981 24.784999,11.31198 24.139999,11.10798 23.207999,10.81598 22.572,10.40898 22.572,9.619979 22.572,8.9049779 23.111999,8.3429777 24.043998,8.1729776z M24.539994,5.3269884C21.529994,5.3269884 19.080995,7.7729885 19.080995,10.778989 19.080995,13.784989 21.529994,16.23199 24.539994,16.23199 27.549995,16.23199 29.998996,13.784989 29.998996,10.778989 29.998996,7.7729885 27.549995,5.3269884 24.539994,5.3269884z M24.539994,3.3269884C28.652995,3.3269881 31.998996,6.6699883 31.998996,10.778989 31.998996,14.88899 28.652995,18.23199 24.539994,18.23199 20.426995,18.23199 17.080995,14.88899 17.080995,10.778989 17.080995,6.6699883 20.426995,3.3269881 24.539994,3.3269884z M16.003314,0C16.345685,-2.4082328E-07,16.687678,0.12000253,16.954169,0.3600079L19.588132,2.7390064C19.009147,3.0970081,18.469146,3.5119864,17.981162,3.9819874L16.002187,2.1960069 3.0493762,13.894008 4.2683674,13.894008C5.0363466,13.894008,5.661337,14.50201,5.661337,15.248012L5.661337,29.998992 11.5,29.998992 11.5,22.810002C11.5,20.328004 13.519,18.310002 16.000001,18.310002 18.481,18.310002 20.500001,20.328004 20.500001,22.810002L20.500001,29.998992 26.34403,29.998992 26.34403,20.054013C27.041024,19.919004,27.710021,19.705991,28.343999,19.425992L28.343999,30.498992C28.343999,31.326018,27.67102,31.998992,26.844022,31.998992L5.1613447,31.998992C4.3343607,31.998992,3.6613668,31.326018,3.6613671,30.498992L3.6613671,15.894009 1.3934103,15.894009C0.80540635,15.894009 0.29342054,15.548 0.08842144,15.012996 -0.10957334,14.498012 0.03143104,13.923 0.44641813,13.549007L15.050205,0.3600079C15.318199,0.12000253,15.660945,-2.4082328E-07,16.003314,0z" />
  </g>
</svg>