<?xml version="1.0" encoding="utf-8"?>
<svg xmlns="http://www.w3.org/2000/svg" height="48" width="48" viewBox="0 0 48 48">
  <g>
    <path id="path1" transform="rotate(0,24,24) translate(11,12.4507184028625) scale(0.8125,0.8125)  " fill="#FFFFFF" d="M22.292999,20.601L22.292999,25.815002 29.414001,25.815002 29.414001,20.601z M12.445999,20.601L12.445999,25.815002 19.804993,25.815002 19.804993,20.601z M2.5859985,20.601L2.5859985,25.815002 9.9570007,25.815002 9.9570007,20.601z M22.292999,13.504993L22.292999,18.268999 29.414001,18.268999 29.414001,13.504993z M12.445999,13.504993L12.445999,18.268999 19.804993,18.268999 19.804993,13.504993z M2.5859985,13.504993L2.5859985,18.268999 9.9570007,18.268999 9.9570007,13.504993z M22.292999,5.8039993L22.292999,11.172002 29.414001,11.172002 29.414001,5.8039993z M12.445999,5.8039993L12.445999,11.172002 19.804993,11.172002 19.804993,5.8039993z M2.5859985,5.8039993L2.5859985,11.172002 9.9570007,11.172002 9.9570007,5.8039993z M0,0L32,0 32,28.429001 0,28.429001z" />
  </g>
</svg>