<?xml version="1.0" encoding="utf-8"?>
<svg xmlns="http://www.w3.org/2000/svg" height="48" width="48" viewBox="0 0 48 48">
  <g>
    <path id="path1" transform="rotate(0,24,24) translate(11,11.0280085305399) scale(0.812220274880632,0.812220274880632)  " fill="#FFFFFF" d="M5.032012,20C5.584012,20 6.032012,20.448 6.032012,21 6.032012,21.552 5.584012,22 5.032012,22 4.4800119,22 4.032012,21.552 4.032012,21 4.032012,20.448 4.4800119,20 5.032012,20z M24.470326,17.302082C26.397566,17.30196 28.324553,18.011468 29.791034,19.430974 31.222023,20.81697 32.011019,22.662015 32.011019,24.625043 32.011019,26.588009 31.222023,28.433054 29.791034,29.819051 28.479033,31.088042 26.742045,31.841039 24.898066,31.942053L24.789088,29.946066C26.152054,29.871054 27.434057,29.31508 28.400053,28.381052 29.439047,27.377016 30.011034,26.043022 30.011034,24.625043 30.011034,23.207979 29.439047,21.873985 28.400053,20.868973 26.23207,18.770996 22.707103,18.770996 20.53912,20.868973 19.515668,21.858846 18.949399,23.17584 18.927537,24.540555L18.927536,24.569755 21.873007,21.720024 23.264009,23.158024 18.058002,28.194025 12.851996,23.158024 14.242997,21.720024 16.932655,24.322256 16.933861,24.283422C17.018888,22.47414 17.792131,20.742751 19.148109,19.430974 20.615596,18.011957 22.543087,17.302204 24.470326,17.302082z M5.032012,12C5.584012,12 6.032012,12.448 6.032012,13 6.032012,13.552 5.584012,14 5.032012,14 4.4800119,14 4.032012,13.552 4.032012,13 4.032012,12.448 4.4800119,12 5.032012,12z M5.032012,3.9689894C5.584012,3.9689894 6.032012,4.4169893 6.032012,4.9689894 6.032012,5.5209894 5.584012,5.9689894 5.032012,5.9689894 4.4800119,5.9689894 4.032012,5.5209894 4.032012,4.9689894 4.032012,4.4169893 4.4800119,3.9689894 5.032012,3.9689894z M2.000001,2L2.000001,8 20,8 20,2z M1.000001,0L21,0C21.552001,0,22,0.44799995,22,1L22,16 20,16 20,10 2.000001,10 2.000001,16 18,16 18,18 2.000001,18 2.000001,24 12,24 12,26 1.000001,26C0.44799995,26,0,25.552,0,25L0,1C0,0.44799995,0.44799995,0,1.000001,0z" />
  </g>
</svg>